<mxfile host="app.diagrams.net" agent="Mozilla/5.0 (Macintosh; Intel Mac OS X 10_15_7) AppleWebKit/537.36 (KHTML, like Gecko) Chrome/137.0.0.0 Safari/537.36" version="27.1.6">
  <diagram name="第 1 页" id="auG8fbJglkiDYVoTX_Ls">
    <mxGraphModel dx="976" dy="629" grid="1" gridSize="10" guides="1" tooltips="1" connect="1" arrows="1" fold="1" page="1" pageScale="1" pageWidth="827" pageHeight="1169" math="0" shadow="0">
      <root>
        <mxCell id="0" />
        <mxCell id="1" parent="0" />
        <mxCell id="2RpVJxB3_AzvPJWXVijA-1" value="" style="rounded=0;whiteSpace=wrap;html=1;fillColor=#fff2cc;strokeColor=#d6b656;dashed=1;dashPattern=1 2;" vertex="1" parent="1">
          <mxGeometry x="240" y="270" width="500" height="80" as="geometry" />
        </mxCell>
        <mxCell id="2RpVJxB3_AzvPJWXVijA-2" style="rounded=0;orthogonalLoop=1;jettySize=auto;html=1;exitX=0;exitY=0;exitDx=70;exitDy=25;exitPerimeter=0;entryX=0;entryY=0.5;entryDx=0;entryDy=0;" edge="1" parent="1" source="2RpVJxB3_AzvPJWXVijA-5" target="2RpVJxB3_AzvPJWXVijA-11">
          <mxGeometry relative="1" as="geometry" />
        </mxCell>
        <mxCell id="2RpVJxB3_AzvPJWXVijA-3" style="rounded=0;orthogonalLoop=1;jettySize=auto;html=1;exitX=0;exitY=0;exitDx=70;exitDy=25;exitPerimeter=0;entryX=0;entryY=0.5;entryDx=0;entryDy=0;" edge="1" parent="1" source="2RpVJxB3_AzvPJWXVijA-5" target="2RpVJxB3_AzvPJWXVijA-15">
          <mxGeometry relative="1" as="geometry" />
        </mxCell>
        <mxCell id="2RpVJxB3_AzvPJWXVijA-4" style="edgeStyle=orthogonalEdgeStyle;rounded=0;orthogonalLoop=1;jettySize=auto;html=1;entryX=0.5;entryY=0;entryDx=0;entryDy=0;" edge="1" parent="1" source="2RpVJxB3_AzvPJWXVijA-5" target="2RpVJxB3_AzvPJWXVijA-17">
          <mxGeometry relative="1" as="geometry" />
        </mxCell>
        <mxCell id="2RpVJxB3_AzvPJWXVijA-5" value="gin" style="shape=cube;whiteSpace=wrap;html=1;boundedLbl=1;backgroundOutline=1;darkOpacity=0.05;darkOpacity2=0.1;size=10;fillColor=#d5e8d4;strokeColor=#82B366;gradientColor=#97d077;" vertex="1" parent="1">
          <mxGeometry x="109" y="170" width="70" height="40" as="geometry" />
        </mxCell>
        <mxCell id="2RpVJxB3_AzvPJWXVijA-6" style="rounded=0;orthogonalLoop=1;jettySize=auto;html=1;exitX=0.5;exitY=1;exitDx=0;exitDy=0;entryX=0;entryY=0;entryDx=30;entryDy=0;entryPerimeter=0;" edge="1" parent="1" source="2RpVJxB3_AzvPJWXVijA-7" target="2RpVJxB3_AzvPJWXVijA-5">
          <mxGeometry relative="1" as="geometry" />
        </mxCell>
        <mxCell id="2RpVJxB3_AzvPJWXVijA-7" value="" style="shape=actor;whiteSpace=wrap;html=1;" vertex="1" parent="1">
          <mxGeometry x="119" y="30" width="40" height="60" as="geometry" />
        </mxCell>
        <mxCell id="2RpVJxB3_AzvPJWXVijA-8" value="/createLoadBalancer&lt;div&gt;userId=0001&lt;/div&gt;" style="shape=note;whiteSpace=wrap;html=1;backgroundOutline=1;darkOpacity=0.05;size=8;" vertex="1" parent="1">
          <mxGeometry x="74" y="110" width="130" height="30" as="geometry" />
        </mxCell>
        <mxCell id="2RpVJxB3_AzvPJWXVijA-9" style="rounded=0;orthogonalLoop=1;jettySize=auto;html=1;exitX=1;exitY=0.5;exitDx=0;exitDy=0;entryX=0;entryY=0.75;entryDx=0;entryDy=0;fillColor=#dae8fc;strokeColor=#6c8ebf;" edge="1" parent="1" source="2RpVJxB3_AzvPJWXVijA-11" target="2RpVJxB3_AzvPJWXVijA-27">
          <mxGeometry relative="1" as="geometry" />
        </mxCell>
        <mxCell id="2RpVJxB3_AzvPJWXVijA-10" value="插入记录&lt;div&gt;LbState=&quot;Provisioning&quot;&lt;/div&gt;" style="edgeLabel;html=1;align=center;verticalAlign=middle;resizable=0;points=[];" vertex="1" connectable="0" parent="2RpVJxB3_AzvPJWXVijA-9">
          <mxGeometry x="0.0233" y="-3" relative="1" as="geometry">
            <mxPoint as="offset" />
          </mxGeometry>
        </mxCell>
        <mxCell id="2RpVJxB3_AzvPJWXVijA-11" value="1. 立即生成 &lt;font&gt;&lt;b style=&quot;color: light-dark(rgb(0, 102, 51), rgb(105, 193, 149));&quot;&gt;lbId&lt;/b&gt;&lt;/font&gt;&lt;div&gt;&lt;font&gt;&lt;font style=&quot;color: rgb(0, 0, 0);&quot;&gt;并插入 Lb 表&lt;/font&gt;&lt;/font&gt;&lt;/div&gt;" style="rounded=0;whiteSpace=wrap;html=1;" vertex="1" parent="1">
          <mxGeometry x="250" y="73" width="120" height="30" as="geometry" />
        </mxCell>
        <mxCell id="2RpVJxB3_AzvPJWXVijA-12" style="edgeStyle=orthogonalEdgeStyle;rounded=0;orthogonalLoop=1;jettySize=auto;html=1;exitX=1;exitY=0.5;exitDx=0;exitDy=0;entryX=-0.008;entryY=0.348;entryDx=0;entryDy=0;entryPerimeter=0;" edge="1" parent="1" target="2RpVJxB3_AzvPJWXVijA-20">
          <mxGeometry relative="1" as="geometry">
            <mxPoint x="370" y="309" as="sourcePoint" />
            <mxPoint x="486" y="309" as="targetPoint" />
          </mxGeometry>
        </mxCell>
        <mxCell id="2RpVJxB3_AzvPJWXVijA-13" style="rounded=0;orthogonalLoop=1;jettySize=auto;html=1;exitX=0.75;exitY=0;exitDx=0;exitDy=0;entryX=0;entryY=0.75;entryDx=0;entryDy=0;fillColor=#f8cecc;strokeColor=#b85450;edgeStyle=orthogonalEdgeStyle;curved=1;" edge="1" parent="1" source="2RpVJxB3_AzvPJWXVijA-15" target="2RpVJxB3_AzvPJWXVijA-28">
          <mxGeometry relative="1" as="geometry" />
        </mxCell>
        <mxCell id="2RpVJxB3_AzvPJWXVijA-14" value="&lt;div&gt;&lt;i&gt;&lt;b&gt;发布前置钩子&lt;/b&gt;&lt;/i&gt;&lt;/div&gt;&lt;div&gt;TaskState=&quot;未执行&quot;&lt;/div&gt;" style="edgeLabel;html=1;align=center;verticalAlign=middle;resizable=0;points=[];" vertex="1" connectable="0" parent="2RpVJxB3_AzvPJWXVijA-13">
          <mxGeometry x="0.0083" y="-1" relative="1" as="geometry">
            <mxPoint x="29" y="32" as="offset" />
          </mxGeometry>
        </mxCell>
        <mxCell id="2RpVJxB3_AzvPJWXVijA-15" value="2. server发送任务" style="rounded=0;whiteSpace=wrap;html=1;" vertex="1" parent="1">
          <mxGeometry x="250" y="300" width="120" height="30" as="geometry" />
        </mxCell>
        <mxCell id="2RpVJxB3_AzvPJWXVijA-16" style="edgeStyle=orthogonalEdgeStyle;rounded=0;orthogonalLoop=1;jettySize=auto;html=1;exitX=0;exitY=0.5;exitDx=0;exitDy=0;entryX=0;entryY=0.75;entryDx=0;entryDy=0;dashed=1;" edge="1" parent="1" source="2RpVJxB3_AzvPJWXVijA-17" target="2RpVJxB3_AzvPJWXVijA-7">
          <mxGeometry relative="1" as="geometry">
            <Array as="points">
              <mxPoint x="34" y="275" />
              <mxPoint x="34" y="75" />
            </Array>
          </mxGeometry>
        </mxCell>
        <mxCell id="2RpVJxB3_AzvPJWXVijA-17" value="3. 返回 &lt;b&gt;&lt;font style=&quot;color: rgb(0, 102, 51);&quot;&gt;lbId&lt;/font&gt;&lt;/b&gt; 和 &lt;b&gt;&lt;font style=&quot;color: rgb(0, 102, 51);&quot;&gt;taskId&lt;/font&gt;&lt;/b&gt;" style="rounded=0;whiteSpace=wrap;html=1;" vertex="1" parent="1">
          <mxGeometry x="84" y="260" width="120" height="30" as="geometry" />
        </mxCell>
        <mxCell id="2RpVJxB3_AzvPJWXVijA-18" style="edgeStyle=orthogonalEdgeStyle;rounded=0;orthogonalLoop=1;jettySize=auto;html=1;exitX=-0.012;exitY=0.576;exitDx=0;exitDy=0;entryX=1;entryY=0.5;entryDx=0;entryDy=0;exitPerimeter=0;" edge="1" parent="1" source="2RpVJxB3_AzvPJWXVijA-20">
          <mxGeometry relative="1" as="geometry">
            <mxPoint x="486" y="317.5" as="sourcePoint" />
            <mxPoint x="370" y="317.5" as="targetPoint" />
          </mxGeometry>
        </mxCell>
        <mxCell id="2RpVJxB3_AzvPJWXVijA-19" style="edgeStyle=orthogonalEdgeStyle;rounded=0;orthogonalLoop=1;jettySize=auto;html=1;exitX=1;exitY=0.5;exitDx=0;exitDy=0;entryX=0;entryY=0.5;entryDx=0;entryDy=0;" edge="1" parent="1" source="2RpVJxB3_AzvPJWXVijA-20" target="2RpVJxB3_AzvPJWXVijA-33">
          <mxGeometry relative="1" as="geometry" />
        </mxCell>
        <mxCell id="2RpVJxB3_AzvPJWXVijA-20" value="broker" style="rounded=1;whiteSpace=wrap;html=1;" vertex="1" parent="1">
          <mxGeometry x="456" y="297.5" width="80" height="35" as="geometry" />
        </mxCell>
        <mxCell id="2RpVJxB3_AzvPJWXVijA-21" value="Machinery" style="text;html=1;align=center;verticalAlign=middle;resizable=0;points=[];autosize=1;strokeColor=none;fillColor=none;" vertex="1" parent="1">
          <mxGeometry x="450" y="350" width="80" height="30" as="geometry" />
        </mxCell>
        <mxCell id="2RpVJxB3_AzvPJWXVijA-22" value="&lt;span&gt;&lt;font style=&quot;&quot;&gt;signature&lt;/font&gt;&lt;/span&gt;" style="shape=note;whiteSpace=wrap;html=1;backgroundOutline=1;darkOpacity=0.05;size=8;fontColor=default;fontStyle=0" vertex="1" parent="1">
          <mxGeometry x="384" y="285" width="60" height="20" as="geometry" />
        </mxCell>
        <mxCell id="2RpVJxB3_AzvPJWXVijA-23" value="&lt;font style=&quot;color: rgb(0, 102, 51);&quot;&gt;&lt;b&gt;taskId&lt;/b&gt;&lt;/font&gt;" style="text;html=1;align=center;verticalAlign=middle;resizable=0;points=[];autosize=1;strokeColor=none;fillColor=none;" vertex="1" parent="1">
          <mxGeometry x="384" y="310" width="60" height="30" as="geometry" />
        </mxCell>
        <mxCell id="2RpVJxB3_AzvPJWXVijA-24" style="edgeStyle=orthogonalEdgeStyle;rounded=0;orthogonalLoop=1;jettySize=auto;html=1;exitX=0;exitY=0.5;exitDx=0;exitDy=0;exitPerimeter=0;entryX=1;entryY=0.5;entryDx=0;entryDy=0;endArrow=none;startFill=0;" edge="1" parent="1" source="2RpVJxB3_AzvPJWXVijA-26" target="2RpVJxB3_AzvPJWXVijA-27">
          <mxGeometry relative="1" as="geometry" />
        </mxCell>
        <mxCell id="2RpVJxB3_AzvPJWXVijA-25" style="edgeStyle=orthogonalEdgeStyle;rounded=0;orthogonalLoop=1;jettySize=auto;html=1;exitX=0;exitY=0.5;exitDx=0;exitDy=0;exitPerimeter=0;entryX=1;entryY=0.5;entryDx=0;entryDy=0;endArrow=none;startFill=0;" edge="1" parent="1" source="2RpVJxB3_AzvPJWXVijA-26" target="2RpVJxB3_AzvPJWXVijA-28">
          <mxGeometry relative="1" as="geometry" />
        </mxCell>
        <mxCell id="2RpVJxB3_AzvPJWXVijA-26" value="MySQL" style="shape=cylinder3;whiteSpace=wrap;html=1;boundedLbl=1;backgroundOutline=1;size=8.758620689655174;" vertex="1" parent="1">
          <mxGeometry x="670" y="80" width="60" height="60" as="geometry" />
        </mxCell>
        <mxCell id="2RpVJxB3_AzvPJWXVijA-27" value="Lb" style="swimlane;whiteSpace=wrap;html=1;startSize=20;fillColor=#dae8fc;strokeColor=#6c8ebf;" vertex="1" parent="1">
          <mxGeometry x="570" y="50" width="50" height="50" as="geometry">
            <mxRectangle x="530" y="10" width="50" height="30" as="alternateBounds" />
          </mxGeometry>
        </mxCell>
        <mxCell id="2RpVJxB3_AzvPJWXVijA-28" value="Task" style="swimlane;whiteSpace=wrap;html=1;startSize=20;fillColor=#f8cecc;strokeColor=#b85450;" vertex="1" parent="1">
          <mxGeometry x="570" y="120" width="50" height="50" as="geometry" />
        </mxCell>
        <mxCell id="2RpVJxB3_AzvPJWXVijA-29" style="rounded=0;orthogonalLoop=1;jettySize=auto;html=1;exitX=0.25;exitY=0;exitDx=0;exitDy=0;entryX=0.5;entryY=1;entryDx=0;entryDy=0;fillColor=#f8cecc;strokeColor=#b85450;edgeStyle=orthogonalEdgeStyle;curved=1;" edge="1" parent="1" source="2RpVJxB3_AzvPJWXVijA-33" target="2RpVJxB3_AzvPJWXVijA-28">
          <mxGeometry relative="1" as="geometry" />
        </mxCell>
        <mxCell id="2RpVJxB3_AzvPJWXVijA-30" value="&lt;b&gt;&lt;i&gt;执行前置钩子&lt;/i&gt;&lt;/b&gt;&lt;div&gt;TaskState=&quot;执行中&quot;&lt;/div&gt;" style="edgeLabel;html=1;align=center;verticalAlign=middle;resizable=0;points=[];" vertex="1" connectable="0" parent="2RpVJxB3_AzvPJWXVijA-29">
          <mxGeometry x="0.0609" y="-1" relative="1" as="geometry">
            <mxPoint x="-7" y="9" as="offset" />
          </mxGeometry>
        </mxCell>
        <mxCell id="2RpVJxB3_AzvPJWXVijA-31" style="edgeStyle=orthogonalEdgeStyle;rounded=0;orthogonalLoop=1;jettySize=auto;html=1;exitX=0.75;exitY=0;exitDx=0;exitDy=0;entryX=1;entryY=0.75;entryDx=0;entryDy=0;fillColor=#f8cecc;strokeColor=#b85450;curved=1;" edge="1" parent="1" source="2RpVJxB3_AzvPJWXVijA-33" target="2RpVJxB3_AzvPJWXVijA-28">
          <mxGeometry relative="1" as="geometry" />
        </mxCell>
        <mxCell id="2RpVJxB3_AzvPJWXVijA-32" value="&lt;b&gt;&lt;i&gt;执行后置钩子&lt;/i&gt;&lt;/b&gt;&lt;div&gt;TaskState=&quot;执行成功/失败&quot;&lt;/div&gt;" style="edgeLabel;html=1;align=center;verticalAlign=middle;resizable=0;points=[];" vertex="1" connectable="0" parent="2RpVJxB3_AzvPJWXVijA-31">
          <mxGeometry x="-0.0022" relative="1" as="geometry">
            <mxPoint y="11" as="offset" />
          </mxGeometry>
        </mxCell>
        <mxCell id="2RpVJxB3_AzvPJWXVijA-33" value="worker 接收任务" style="rounded=0;whiteSpace=wrap;html=1;" vertex="1" parent="1">
          <mxGeometry x="610" y="300" width="120" height="30" as="geometry" />
        </mxCell>
        <mxCell id="2RpVJxB3_AzvPJWXVijA-34" value="" style="rounded=1;whiteSpace=wrap;html=1;" vertex="1" parent="1">
          <mxGeometry x="780" y="258" width="130" height="115" as="geometry" />
        </mxCell>
        <mxCell id="2RpVJxB3_AzvPJWXVijA-35" style="edgeStyle=orthogonalEdgeStyle;rounded=0;orthogonalLoop=1;jettySize=auto;html=1;entryX=0;entryY=0.5;entryDx=0;entryDy=0;exitX=1;exitY=0.5;exitDx=0;exitDy=0;" edge="1" parent="1" source="2RpVJxB3_AzvPJWXVijA-33" target="2RpVJxB3_AzvPJWXVijA-34">
          <mxGeometry relative="1" as="geometry">
            <mxPoint x="790" y="315" as="sourcePoint" />
          </mxGeometry>
        </mxCell>
        <mxCell id="2RpVJxB3_AzvPJWXVijA-36" value="&amp;nbsp;执行" style="edgeLabel;html=1;align=center;verticalAlign=middle;resizable=0;points=[];" vertex="1" connectable="0" parent="2RpVJxB3_AzvPJWXVijA-35">
          <mxGeometry x="0.0022" y="-1" relative="1" as="geometry">
            <mxPoint y="-11" as="offset" />
          </mxGeometry>
        </mxCell>
        <mxCell id="2RpVJxB3_AzvPJWXVijA-37" value="Task" style="text;html=1;align=center;verticalAlign=middle;resizable=0;points=[];autosize=1;strokeColor=none;fillColor=none;" vertex="1" parent="1">
          <mxGeometry x="820" y="258" width="50" height="30" as="geometry" />
        </mxCell>
        <mxCell id="2RpVJxB3_AzvPJWXVijA-38" style="edgeStyle=orthogonalEdgeStyle;rounded=0;orthogonalLoop=1;jettySize=auto;html=1;exitX=0.5;exitY=1;exitDx=0;exitDy=0;entryX=0.5;entryY=0;entryDx=0;entryDy=0;" edge="1" parent="1" source="2RpVJxB3_AzvPJWXVijA-39" target="2RpVJxB3_AzvPJWXVijA-43">
          <mxGeometry relative="1" as="geometry" />
        </mxCell>
        <mxCell id="2RpVJxB3_AzvPJWXVijA-39" value="创建实例【耗时】" style="rounded=0;whiteSpace=wrap;html=1;" vertex="1" parent="1">
          <mxGeometry x="790" y="287" width="110" height="30" as="geometry" />
        </mxCell>
        <mxCell id="2RpVJxB3_AzvPJWXVijA-40" style="edgeStyle=orthogonalEdgeStyle;rounded=0;orthogonalLoop=1;jettySize=auto;html=1;exitX=1;exitY=0.5;exitDx=0;exitDy=0;entryX=0.5;entryY=0;entryDx=0;entryDy=0;fillColor=#dae8fc;strokeColor=#6c8ebf;curved=1;" edge="1" parent="1" source="2RpVJxB3_AzvPJWXVijA-43" target="2RpVJxB3_AzvPJWXVijA-27">
          <mxGeometry relative="1" as="geometry" />
        </mxCell>
        <mxCell id="2RpVJxB3_AzvPJWXVijA-41" value="&lt;span style=&quot;color: rgba(0, 0, 0, 0); font-family: monospace; font-size: 0px; text-align: start; background-color: rgb(236, 236, 236);&quot;&gt;%3CmxGraphModel%3E%3Croot%3E%3CmxCell%20id%3D%220%22%2F%3E%3CmxCell%20id%3D%221%22%20parent%3D%220%22%2F%3E%3CmxCell%20id%3D%222%22%20value%3D%22%E6%8F%92%E5%85%A5%E8%AE%B0%E5%BD%95%26lt%3Bdiv%26gt%3BLbState%3D%26quot%3BProvisioning%26quot%3B%26lt%3B%2Fdiv%26gt%3B%22%20style%3D%22edgeLabel%3Bhtml%3D1%3Balign%3Dcenter%3BverticalAlign%3Dmiddle%3Bresizable%3D0%3Bpoints%3D%5B%5D%3B%22%20vertex%3D%221%22%20connectable%3D%220%22%20parent%3D%221%22%3E%3CmxGeometry%20x%3D%22473.8120780111042%22%20y%3D%2282.85676259449929%22%20as%3D%22geometry%22%2F%3E%3C%2FmxCell%3E%3C%2Froot%3E%3C%2FmxGraphModel%3E&lt;/span&gt;" style="edgeLabel;html=1;align=center;verticalAlign=middle;resizable=0;points=[];" vertex="1" connectable="0" parent="2RpVJxB3_AzvPJWXVijA-40">
          <mxGeometry x="-0.2823" y="-1" relative="1" as="geometry">
            <mxPoint as="offset" />
          </mxGeometry>
        </mxCell>
        <mxCell id="2RpVJxB3_AzvPJWXVijA-42" value="更新记录&lt;div&gt;LbState=&quot;Active&quot;&lt;/div&gt;" style="edgeLabel;html=1;align=center;verticalAlign=middle;resizable=0;points=[];" vertex="1" connectable="0" parent="2RpVJxB3_AzvPJWXVijA-40">
          <mxGeometry x="-0.2681" relative="1" as="geometry">
            <mxPoint as="offset" />
          </mxGeometry>
        </mxCell>
        <mxCell id="2RpVJxB3_AzvPJWXVijA-43" value="更新 Lb 状态" style="rounded=0;whiteSpace=wrap;html=1;" vertex="1" parent="1">
          <mxGeometry x="790" y="333" width="110" height="30" as="geometry" />
        </mxCell>
        <mxCell id="2RpVJxB3_AzvPJWXVijA-44" value="&lt;span&gt;&lt;font style=&quot;&quot;&gt;signature&lt;/font&gt;&lt;/span&gt;" style="shape=note;whiteSpace=wrap;html=1;backgroundOutline=1;darkOpacity=0.05;size=8;fontColor=default;fontStyle=0" vertex="1" parent="1">
          <mxGeometry x="540" y="290" width="60" height="20" as="geometry" />
        </mxCell>
      </root>
    </mxGraphModel>
  </diagram>
</mxfile>
